<svg width="66" height="17" fill="none" xmlns="http://www.w3.org/2000/svg"><path d="M6.358 16c3.298 0 5.253-1.622 5.253-4.35 0-2.063-1.353-3.546-3.459-3.814V7.75c1.494-.269 2.675-1.772 2.675-3.384C10.827 2.046 9.033.5 6.38.5H.504V16h5.854zM2.438 2.207h3.501c1.88 0 2.933.849 2.933 2.385 0 1.676-1.246 2.589-3.534 2.589h-2.9V2.207zm0 12.085V8.846h3.448c2.47 0 3.738.913 3.738 2.707 0 1.794-1.225 2.739-3.556 2.739h-3.63zm18.927-1.493c-.312 1.053-1.354 1.772-2.772 1.772-2.009 0-3.265-1.407-3.265-3.545v-.107h8.013v-.709c0-3.384-1.858-5.575-4.877-5.575-3.083 0-5.06 2.352-5.06 5.822 0 3.513 1.945 5.736 5.146 5.736 2.439 0 4.33-1.44 4.652-3.394h-1.837zm-2.933-6.542c1.762 0 2.933 1.332 2.976 3.201h-6.07c.119-1.858 1.343-3.201 3.094-3.201zM25.672 16h1.87V9.426c0-1.89 1.148-3.137 2.91-3.137 1.719 0 2.568.988 2.568 2.793V16h1.869V8.749c0-2.535-1.418-4.114-3.867-4.114-1.73 0-2.922.773-3.545 1.976h-.043V4.828h-1.762V16zM38.315 2.132v2.696H36.65v1.536h1.665V13.1c0 2.148.795 2.986 2.847 2.986.44 0 .956-.032 1.181-.086v-1.568a7.266 7.266 0 01-.773.053c-.956 0-1.386-.462-1.386-1.482V6.364h2.17V4.828h-2.17V2.132h-1.869zM49.1 16.193c3.083 0 5.167-2.223 5.167-5.779 0-3.566-2.084-5.78-5.167-5.78-3.094 0-5.178 2.214-5.178 5.78 0 3.556 2.084 5.78 5.178 5.78zm0-1.643c-1.977 0-3.276-1.504-3.276-4.136s1.3-4.136 3.276-4.136c1.976 0 3.265 1.504 3.265 4.136S51.076 14.55 49.1 14.55zM56.597 16h1.87V9.426c0-1.89 1.149-3.137 2.91-3.137 1.72 0 2.568.988 2.568 2.793V16h1.87V8.749c0-2.535-1.419-4.114-3.868-4.114-1.73 0-2.922.773-3.545 1.976h-.043V4.828h-1.762V16z" fill="#080808"/></svg>